<?xml version="1.0" encoding="utf-8" ?>
<svg baseProfile="full" height="32" version="1.1" width="32" xmlns="http://www.w3.org/2000/svg" xmlns:ev="http://www.w3.org/2001/xml-events" xmlns:xlink="http://www.w3.org/1999/xlink"><defs /><rect fill="rgb(0,40,62)" height="1" width="1" x="15" y="2" /><rect fill="rgb(0,38,62)" height="1" width="1" x="16" y="2" /><rect fill="rgb(0,38,60)" height="1" width="1" x="14" y="3" /><rect fill="rgb(217,126,0)" height="1" width="1" x="15" y="3" /><rect fill="rgb(214,178,67)" height="1" width="1" x="16" y="3" /><rect fill="rgb(0,36,61)" height="1" width="1" x="17" y="3" /><rect fill="rgb(0,39,60)" height="1" width="1" x="14" y="4" /><rect fill="rgb(217,126,0)" height="1" width="1" x="15" y="4" /><rect fill="rgb(217,125,0)" height="1" width="1" x="16" y="4" /><rect fill="rgb(0,36,61)" height="1" width="1" x="17" y="4" /><rect fill="rgb(13,39,60)" height="1" width="1" x="14" y="5" /><rect fill="rgb(39,48,52)" height="1" width="1" x="15" y="5" /><rect fill="rgb(49,46,53)" height="1" width="1" x="16" y="5" /><rect fill="rgb(7,28,52)" height="1" width="1" x="17" y="5" /><rect fill="rgb(44,76,87)" height="1" width="1" x="14" y="6" /><rect fill="rgb(0,90,132)" height="1" width="1" x="15" y="6" /><rect fill="rgb(0,89,131)" height="1" width="1" x="16" y="6" /><rect fill="rgb(0,36,62)" height="1" width="1" x="10" y="7" /><rect fill="rgb(1,39,60)" height="1" width="1" x="11" y="7" /><rect fill="rgb(0,38,61)" height="1" width="1" x="12" y="7" /><rect fill="rgb(0,38,61)" height="1" width="1" x="13" y="7" /><rect fill="rgb(0,38,60)" height="1" width="1" x="14" y="7" /><rect fill="rgb(0,38,61)" height="1" width="1" x="15" y="7" /><rect fill="rgb(0,39,60)" height="1" width="1" x="16" y="7" /><rect fill="rgb(0,40,62)" height="1" width="1" x="17" y="7" /><rect fill="rgb(0,37,59)" height="1" width="1" x="18" y="7" /><rect fill="rgb(0,36,60)" height="1" width="1" x="19" y="7" /><rect fill="rgb(0,36,61)" height="1" width="1" x="20" y="7" /><rect fill="rgb(0,38,60)" height="1" width="1" x="21" y="7" /><rect fill="rgb(0,38,58)" height="1" width="1" x="9" y="8" /><rect fill="rgb(0,38,59)" height="1" width="1" x="10" y="8" /><rect fill="rgb(214,181,86)" height="1" width="1" x="11" y="8" /><rect fill="rgb(212,180,87)" height="1" width="1" x="12" y="8" /><rect fill="rgb(213,180,86)" height="1" width="1" x="13" y="8" /><rect fill="rgb(213,181,85)" height="1" width="1" x="14" y="8" /><rect fill="rgb(215,181,86)" height="1" width="1" x="15" y="8" /><rect fill="rgb(215,182,86)" height="1" width="1" x="16" y="8" /><rect fill="rgb(216,182,87)" height="1" width="1" x="17" y="8" /><rect fill="rgb(216,182,86)" height="1" width="1" x="18" y="8" /><rect fill="rgb(214,179,84)" height="1" width="1" x="19" y="8" /><rect fill="rgb(213,179,83)" height="1" width="1" x="20" y="8" /><rect fill="rgb(0,36,59)" height="1" width="1" x="21" y="8" /><rect fill="rgb(0,39,59)" height="1" width="1" x="22" y="8" /><rect fill="rgb(0,38,61)" height="1" width="1" x="8" y="9" /><rect fill="rgb(212,178,83)" height="1" width="1" x="9" y="9" /><rect fill="rgb(0,37,60)" height="1" width="1" x="10" y="9" /><rect fill="rgb(0,38,62)" height="1" width="1" x="11" y="9" /><rect fill="rgb(0,39,61)" height="1" width="1" x="12" y="9" /><rect fill="rgb(0,37,62)" height="1" width="1" x="13" y="9" /><rect fill="rgb(0,38,60)" height="1" width="1" x="14" y="9" /><rect fill="rgb(0,38,60)" height="1" width="1" x="15" y="9" /><rect fill="rgb(0,37,60)" height="1" width="1" x="16" y="9" /><rect fill="rgb(0,39,60)" height="1" width="1" x="17" y="9" /><rect fill="rgb(0,38,60)" height="1" width="1" x="18" y="9" /><rect fill="rgb(0,40,61)" height="1" width="1" x="19" y="9" /><rect fill="rgb(0,39,60)" height="1" width="1" x="20" y="9" /><rect fill="rgb(0,38,59)" height="1" width="1" x="21" y="9" /><rect fill="rgb(213,177,84)" height="1" width="1" x="22" y="9" /><rect fill="rgb(0,39,61)" height="1" width="1" x="23" y="9" /><rect fill="rgb(0,37,60)" height="1" width="1" x="8" y="10" /><rect fill="rgb(210,176,79)" height="1" width="1" x="9" y="10" /><rect fill="rgb(0,36,60)" height="1" width="1" x="10" y="10" /><rect fill="rgb(0,37,60)" height="1" width="1" x="11" y="10" /><rect fill="rgb(0,37,62)" height="1" width="1" x="12" y="10" /><rect fill="rgb(0,36,59)" height="1" width="1" x="13" y="10" /><rect fill="rgb(0,38,59)" height="1" width="1" x="14" y="10" /><rect fill="rgb(0,37,61)" height="1" width="1" x="15" y="10" /><rect fill="rgb(0,40,59)" height="1" width="1" x="16" y="10" /><rect fill="rgb(0,38,62)" height="1" width="1" x="17" y="10" /><rect fill="rgb(0,40,64)" height="1" width="1" x="18" y="10" /><rect fill="rgb(0,36,63)" height="1" width="1" x="19" y="10" /><rect fill="rgb(0,36,61)" height="1" width="1" x="20" y="10" /><rect fill="rgb(0,39,60)" height="1" width="1" x="21" y="10" /><rect fill="rgb(211,176,81)" height="1" width="1" x="22" y="10" /><rect fill="rgb(0,39,61)" height="1" width="1" x="23" y="10" /><rect fill="rgb(0,39,61)" height="1" width="1" x="7" y="11" /><rect fill="rgb(0,38,62)" height="1" width="1" x="8" y="11" /><rect fill="rgb(158,128,41)" height="1" width="1" x="9" y="11" /><rect fill="rgb(0,37,62)" height="1" width="1" x="10" y="11" /><rect fill="rgb(1,1,9)" height="1" width="1" x="11" y="11" /><rect fill="rgb(0,145,238)" height="1" width="1" x="12" y="11" /><rect fill="rgb(0,142,237)" height="1" width="1" x="13" y="11" /><rect fill="rgb(0,37,61)" height="1" width="1" x="14" y="11" /><rect fill="rgb(0,39,61)" height="1" width="1" x="15" y="11" /><rect fill="rgb(0,38,62)" height="1" width="1" x="16" y="11" /><rect fill="rgb(0,37,61)" height="1" width="1" x="17" y="11" /><rect fill="rgb(0,146,239)" height="1" width="1" x="18" y="11" /><rect fill="rgb(0,144,237)" height="1" width="1" x="19" y="11" /><rect fill="rgb(0,37,60)" height="1" width="1" x="20" y="11" /><rect fill="rgb(0,38,61)" height="1" width="1" x="21" y="11" /><rect fill="rgb(160,128,39)" height="1" width="1" x="22" y="11" /><rect fill="rgb(0,38,58)" height="1" width="1" x="23" y="11" /><rect fill="rgb(0,39,61)" height="1" width="1" x="24" y="11" /><rect fill="rgb(0,40,62)" height="1" width="1" x="6" y="12" /><rect fill="rgb(1,27,76)" height="1" width="1" x="7" y="12" /><rect fill="rgb(0,37,61)" height="1" width="1" x="8" y="12" /><rect fill="rgb(160,131,39)" height="1" width="1" x="9" y="12" /><rect fill="rgb(0,38,61)" height="1" width="1" x="10" y="12" /><rect fill="rgb(0,0,0)" height="1" width="1" x="11" y="12" /><rect fill="rgb(0,144,238)" height="1" width="1" x="12" y="12" /><rect fill="rgb(0,169,249)" height="1" width="1" x="13" y="12" /><rect fill="rgb(0,37,61)" height="1" width="1" x="14" y="12" /><rect fill="rgb(0,38,60)" height="1" width="1" x="15" y="12" /><rect fill="rgb(0,40,61)" height="1" width="1" x="16" y="12" /><rect fill="rgb(0,38,62)" height="1" width="1" x="17" y="12" /><rect fill="rgb(0,173,247)" height="1" width="1" x="18" y="12" /><rect fill="rgb(0,143,238)" height="1" width="1" x="19" y="12" /><rect fill="rgb(0,40,60)" height="1" width="1" x="20" y="12" /><rect fill="rgb(0,36,60)" height="1" width="1" x="21" y="12" /><rect fill="rgb(163,127,40)" height="1" width="1" x="22" y="12" /><rect fill="rgb(1,37,59)" height="1" width="1" x="23" y="12" /><rect fill="rgb(0,26,71)" height="1" width="1" x="24" y="12" /><rect fill="rgb(0,9,40)" height="1" width="1" x="25" y="12" /><rect fill="rgb(0,38,64)" height="1" width="1" x="6" y="13" /><rect fill="rgb(170,87,0)" height="1" width="1" x="7" y="13" /><rect fill="rgb(0,38,60)" height="1" width="1" x="8" y="13" /><rect fill="rgb(162,132,39)" height="1" width="1" x="9" y="13" /><rect fill="rgb(0,38,61)" height="1" width="1" x="10" y="13" /><rect fill="rgb(0,38,61)" height="1" width="1" x="11" y="13" /><rect fill="rgb(0,39,61)" height="1" width="1" x="12" y="13" /><rect fill="rgb(0,38,61)" height="1" width="1" x="13" y="13" /><rect fill="rgb(0,39,62)" height="1" width="1" x="14" y="13" /><rect fill="rgb(0,39,62)" height="1" width="1" x="15" y="13" /><rect fill="rgb(0,39,60)" height="1" width="1" x="16" y="13" /><rect fill="rgb(0,38,60)" height="1" width="1" x="17" y="13" /><rect fill="rgb(0,38,61)" height="1" width="1" x="18" y="13" /><rect fill="rgb(0,39,62)" height="1" width="1" x="19" y="13" /><rect fill="rgb(0,38,62)" height="1" width="1" x="20" y="13" /><rect fill="rgb(0,38,60)" height="1" width="1" x="21" y="13" /><rect fill="rgb(162,128,38)" height="1" width="1" x="22" y="13" /><rect fill="rgb(3,37,59)" height="1" width="1" x="23" y="13" /><rect fill="rgb(171,87,0)" height="1" width="1" x="24" y="13" /><rect fill="rgb(0,7,35)" height="1" width="1" x="25" y="13" /><rect fill="rgb(0,39,62)" height="1" width="1" x="7" y="14" /><rect fill="rgb(0,38,62)" height="1" width="1" x="8" y="14" /><rect fill="rgb(160,131,40)" height="1" width="1" x="9" y="14" /><rect fill="rgb(0,38,60)" height="1" width="1" x="10" y="14" /><rect fill="rgb(0,39,61)" height="1" width="1" x="11" y="14" /><rect fill="rgb(0,38,61)" height="1" width="1" x="12" y="14" /><rect fill="rgb(3,217,255)" height="1" width="1" x="13" y="14" /><rect fill="rgb(4,205,253)" height="1" width="1" x="14" y="14" /><rect fill="rgb(0,38,61)" height="1" width="1" x="15" y="14" /><rect fill="rgb(0,38,62)" height="1" width="1" x="16" y="14" /><rect fill="rgb(0,198,254)" height="1" width="1" x="17" y="14" /><rect fill="rgb(3,178,254)" height="1" width="1" x="18" y="14" /><rect fill="rgb(0,38,60)" height="1" width="1" x="19" y="14" /><rect fill="rgb(0,39,61)" height="1" width="1" x="20" y="14" /><rect fill="rgb(0,37,60)" height="1" width="1" x="21" y="14" /><rect fill="rgb(162,127,39)" height="1" width="1" x="22" y="14" /><rect fill="rgb(0,37,60)" height="1" width="1" x="23" y="14" /><rect fill="rgb(0,38,61)" height="1" width="1" x="24" y="14" /><rect fill="rgb(0,36,62)" height="1" width="1" x="7" y="15" /><rect fill="rgb(0,37,61)" height="1" width="1" x="8" y="15" /><rect fill="rgb(164,130,38)" height="1" width="1" x="9" y="15" /><rect fill="rgb(0,38,62)" height="1" width="1" x="10" y="15" /><rect fill="rgb(0,38,58)" height="1" width="1" x="11" y="15" /><rect fill="rgb(0,40,62)" height="1" width="1" x="12" y="15" /><rect fill="rgb(0,38,61)" height="1" width="1" x="13" y="15" /><rect fill="rgb(0,142,237)" height="1" width="1" x="14" y="15" /><rect fill="rgb(0,144,237)" height="1" width="1" x="15" y="15" /><rect fill="rgb(0,142,237)" height="1" width="1" x="16" y="15" /><rect fill="rgb(0,143,236)" height="1" width="1" x="17" y="15" /><rect fill="rgb(0,39,62)" height="1" width="1" x="18" y="15" /><rect fill="rgb(0,38,61)" height="1" width="1" x="19" y="15" /><rect fill="rgb(0,38,60)" height="1" width="1" x="20" y="15" /><rect fill="rgb(0,37,60)" height="1" width="1" x="21" y="15" /><rect fill="rgb(159,125,37)" height="1" width="1" x="22" y="15" /><rect fill="rgb(0,37,61)" height="1" width="1" x="23" y="15" /><rect fill="rgb(0,37,60)" height="1" width="1" x="24" y="15" /><rect fill="rgb(0,38,62)" height="1" width="1" x="8" y="16" /><rect fill="rgb(0,34,58)" height="1" width="1" x="9" y="16" /><rect fill="rgb(138,104,21)" height="1" width="1" x="10" y="16" /><rect fill="rgb(124,101,22)" height="1" width="1" x="11" y="16" /><rect fill="rgb(0,39,61)" height="1" width="1" x="12" y="16" /><rect fill="rgb(0,38,59)" height="1" width="1" x="13" y="16" /><rect fill="rgb(0,38,61)" height="1" width="1" x="14" y="16" /><rect fill="rgb(0,38,60)" height="1" width="1" x="15" y="16" /><rect fill="rgb(0,39,61)" height="1" width="1" x="16" y="16" /><rect fill="rgb(0,40,61)" height="1" width="1" x="17" y="16" /><rect fill="rgb(0,39,62)" height="1" width="1" x="18" y="16" /><rect fill="rgb(0,39,61)" height="1" width="1" x="19" y="16" /><rect fill="rgb(128,95,21)" height="1" width="1" x="20" y="16" /><rect fill="rgb(137,104,22)" height="1" width="1" x="21" y="16" /><rect fill="rgb(0,36,60)" height="1" width="1" x="22" y="16" /><rect fill="rgb(0,40,60)" height="1" width="1" x="23" y="16" /><rect fill="rgb(0,39,61)" height="1" width="1" x="9" y="17" /><rect fill="rgb(0,35,59)" height="1" width="1" x="10" y="17" /><rect fill="rgb(136,104,22)" height="1" width="1" x="11" y="17" /><rect fill="rgb(135,105,21)" height="1" width="1" x="12" y="17" /><rect fill="rgb(138,104,22)" height="1" width="1" x="13" y="17" /><rect fill="rgb(134,104,22)" height="1" width="1" x="14" y="17" /><rect fill="rgb(138,105,22)" height="1" width="1" x="15" y="17" /><rect fill="rgb(137,104,21)" height="1" width="1" x="16" y="17" /><rect fill="rgb(137,104,21)" height="1" width="1" x="17" y="17" /><rect fill="rgb(137,105,21)" height="1" width="1" x="18" y="17" /><rect fill="rgb(136,104,22)" height="1" width="1" x="19" y="17" /><rect fill="rgb(138,104,22)" height="1" width="1" x="20" y="17" /><rect fill="rgb(0,38,59)" height="1" width="1" x="21" y="17" /><rect fill="rgb(0,39,62)" height="1" width="1" x="22" y="17" /><rect fill="rgb(0,38,62)" height="1" width="1" x="10" y="18" /><rect fill="rgb(0,21,37)" height="1" width="1" x="11" y="18" /><rect fill="rgb(0,79,120)" height="1" width="1" x="12" y="18" /><rect fill="rgb(0,80,120)" height="1" width="1" x="13" y="18" /><rect fill="rgb(0,80,120)" height="1" width="1" x="14" y="18" /><rect fill="rgb(0,80,118)" height="1" width="1" x="15" y="18" /><rect fill="rgb(0,81,119)" height="1" width="1" x="16" y="18" /><rect fill="rgb(0,80,119)" height="1" width="1" x="17" y="18" /><rect fill="rgb(0,80,121)" height="1" width="1" x="18" y="18" /><rect fill="rgb(0,81,120)" height="1" width="1" x="19" y="18" /><rect fill="rgb(0,40,62)" height="1" width="1" x="20" y="18" /><rect fill="rgb(0,37,60)" height="1" width="1" x="21" y="18" /><rect fill="rgb(0,42,68)" height="1" width="1" x="9" y="19" /><rect fill="rgb(0,70,106)" height="1" width="1" x="10" y="19" /><rect fill="rgb(0,18,39)" height="1" width="1" x="11" y="19" /><rect fill="rgb(0,114,163)" height="1" width="1" x="12" y="19" /><rect fill="rgb(5,114,154)" height="1" width="1" x="13" y="19" /><rect fill="rgb(0,110,160)" height="1" width="1" x="14" y="19" /><rect fill="rgb(6,114,154)" height="1" width="1" x="15" y="19" /><rect fill="rgb(2,113,159)" height="1" width="1" x="16" y="19" /><rect fill="rgb(5,113,154)" height="1" width="1" x="17" y="19" /><rect fill="rgb(0,118,159)" height="1" width="1" x="18" y="19" /><rect fill="rgb(1,116,163)" height="1" width="1" x="19" y="19" /><rect fill="rgb(0,40,63)" height="1" width="1" x="20" y="19" /><rect fill="rgb(0,67,102)" height="1" width="1" x="21" y="19" /><rect fill="rgb(0,40,64)" height="1" width="1" x="22" y="19" /><rect fill="rgb(54,88,101)" height="1" width="1" x="23" y="19" /><rect fill="rgb(0,39,64)" height="1" width="1" x="8" y="20" /><rect fill="rgb(0,83,125)" height="1" width="1" x="9" y="20" /><rect fill="rgb(0,37,61)" height="1" width="1" x="10" y="20" /><rect fill="rgb(0,16,37)" height="1" width="1" x="11" y="20" /><rect fill="rgb(0,111,160)" height="1" width="1" x="12" y="20" /><rect fill="rgb(0,105,167)" height="1" width="1" x="13" y="20" /><rect fill="rgb(0,107,156)" height="1" width="1" x="14" y="20" /><rect fill="rgb(0,110,155)" height="1" width="1" x="15" y="20" /><rect fill="rgb(0,103,155)" height="1" width="1" x="16" y="20" /><rect fill="rgb(80,108,70)" height="1" width="1" x="17" y="20" /><rect fill="rgb(7,102,170)" height="1" width="1" x="18" y="20" /><rect fill="rgb(0,114,160)" height="1" width="1" x="19" y="20" /><rect fill="rgb(0,38,62)" height="1" width="1" x="20" y="20" /><rect fill="rgb(0,40,61)" height="1" width="1" x="21" y="20" /><rect fill="rgb(0,84,124)" height="1" width="1" x="22" y="20" /><rect fill="rgb(0,38,62)" height="1" width="1" x="23" y="20" /><rect fill="rgb(0,70,111)" height="1" width="1" x="8" y="21" /><rect fill="rgb(0,86,126)" height="1" width="1" x="9" y="21" /><rect fill="rgb(0,39,63)" height="1" width="1" x="10" y="21" /><rect fill="rgb(0,17,34)" height="1" width="1" x="11" y="21" /><rect fill="rgb(1,96,141)" height="1" width="1" x="12" y="21" /><rect fill="rgb(255,173,0)" height="1" width="1" x="13" y="21" /><rect fill="rgb(2,92,142)" height="1" width="1" x="14" y="21" /><rect fill="rgb(0,70,178)" height="1" width="1" x="15" y="21" /><rect fill="rgb(1,97,145)" height="1" width="1" x="16" y="21" /><rect fill="rgb(0,81,169)" height="1" width="1" x="17" y="21" /><rect fill="rgb(4,94,171)" height="1" width="1" x="18" y="21" /><rect fill="rgb(0,95,139)" height="1" width="1" x="19" y="21" /><rect fill="rgb(0,41,63)" height="1" width="1" x="20" y="21" /><rect fill="rgb(0,41,63)" height="1" width="1" x="21" y="21" /><rect fill="rgb(0,84,124)" height="1" width="1" x="22" y="21" /><rect fill="rgb(1,80,123)" height="1" width="1" x="23" y="21" /><rect fill="rgb(0,64,99)" height="1" width="1" x="8" y="22" /><rect fill="rgb(0,40,62)" height="1" width="1" x="9" y="22" /><rect fill="rgb(0,38,62)" height="1" width="1" x="10" y="22" /><rect fill="rgb(0,65,102)" height="1" width="1" x="11" y="22" /><rect fill="rgb(0,94,139)" height="1" width="1" x="12" y="22" /><rect fill="rgb(0,95,140)" height="1" width="1" x="13" y="22" /><rect fill="rgb(0,95,140)" height="1" width="1" x="14" y="22" /><rect fill="rgb(0,93,140)" height="1" width="1" x="15" y="22" /><rect fill="rgb(0,96,139)" height="1" width="1" x="16" y="22" /><rect fill="rgb(0,95,139)" height="1" width="1" x="17" y="22" /><rect fill="rgb(0,95,140)" height="1" width="1" x="18" y="22" /><rect fill="rgb(0,98,142)" height="1" width="1" x="19" y="22" /><rect fill="rgb(0,62,98)" height="1" width="1" x="20" y="22" /><rect fill="rgb(0,38,61)" height="1" width="1" x="21" y="22" /><rect fill="rgb(0,38,62)" height="1" width="1" x="22" y="22" /><rect fill="rgb(0,63,97)" height="1" width="1" x="23" y="22" /><rect fill="rgb(63,88,97)" height="1" width="1" x="7" y="23" /><rect fill="rgb(0,78,116)" height="1" width="1" x="8" y="23" /><rect fill="rgb(0,80,119)" height="1" width="1" x="9" y="23" /><rect fill="rgb(0,40,61)" height="1" width="1" x="10" y="23" /><rect fill="rgb(0,43,126)" height="1" width="1" x="11" y="23" /><rect fill="rgb(137,100,20)" height="1" width="1" x="12" y="23" /><rect fill="rgb(223,135,0)" height="1" width="1" x="13" y="23" /><rect fill="rgb(224,136,0)" height="1" width="1" x="14" y="23" /><rect fill="rgb(223,135,0)" height="1" width="1" x="15" y="23" /><rect fill="rgb(223,134,0)" height="1" width="1" x="16" y="23" /><rect fill="rgb(220,131,0)" height="1" width="1" x="17" y="23" /><rect fill="rgb(220,133,0)" height="1" width="1" x="18" y="23" /><rect fill="rgb(136,102,20)" height="1" width="1" x="19" y="23" /><rect fill="rgb(0,67,104)" height="1" width="1" x="20" y="23" /><rect fill="rgb(0,38,60)" height="1" width="1" x="21" y="23" /><rect fill="rgb(0,82,121)" height="1" width="1" x="22" y="23" /><rect fill="rgb(0,81,120)" height="1" width="1" x="23" y="23" /><rect fill="rgb(0,41,66)" height="1" width="1" x="8" y="24" /><rect fill="rgb(0,80,118)" height="1" width="1" x="9" y="24" /><rect fill="rgb(0,38,62)" height="1" width="1" x="10" y="24" /><rect fill="rgb(0,37,61)" height="1" width="1" x="11" y="24" /><rect fill="rgb(138,103,19)" height="1" width="1" x="12" y="24" /><rect fill="rgb(226,138,0)" height="1" width="1" x="13" y="24" /><rect fill="rgb(224,134,0)" height="1" width="1" x="14" y="24" /><rect fill="rgb(223,135,0)" height="1" width="1" x="15" y="24" /><rect fill="rgb(224,135,0)" height="1" width="1" x="16" y="24" /><rect fill="rgb(225,136,0)" height="1" width="1" x="17" y="24" /><rect fill="rgb(235,150,6)" height="1" width="1" x="18" y="24" /><rect fill="rgb(137,103,17)" height="1" width="1" x="19" y="24" /><rect fill="rgb(0,38,61)" height="1" width="1" x="20" y="24" /><rect fill="rgb(0,39,60)" height="1" width="1" x="21" y="24" /><rect fill="rgb(0,80,119)" height="1" width="1" x="22" y="24" /><rect fill="rgb(0,40,65)" height="1" width="1" x="23" y="24" /><rect fill="rgb(49,80,89)" height="1" width="1" x="11" y="25" /><rect fill="rgb(0,66,102)" height="1" width="1" x="12" y="25" /><rect fill="rgb(0,69,105)" height="1" width="1" x="13" y="25" /><rect fill="rgb(0,39,61)" height="1" width="1" x="14" y="25" /><rect fill="rgb(0,37,60)" height="1" width="1" x="15" y="25" /><rect fill="rgb(0,38,61)" height="1" width="1" x="16" y="25" /><rect fill="rgb(0,38,59)" height="1" width="1" x="17" y="25" /><rect fill="rgb(0,70,104)" height="1" width="1" x="18" y="25" /><rect fill="rgb(0,68,104)" height="1" width="1" x="19" y="25" /><rect fill="rgb(0,66,100)" height="1" width="1" x="12" y="26" /><rect fill="rgb(0,63,100)" height="1" width="1" x="13" y="26" /><rect fill="rgb(0,37,60)" height="1" width="1" x="14" y="26" /><rect fill="rgb(0,38,61)" height="1" width="1" x="17" y="26" /><rect fill="rgb(0,64,99)" height="1" width="1" x="18" y="26" /><rect fill="rgb(0,70,104)" height="1" width="1" x="19" y="26" /><rect fill="rgb(0,38,62)" height="1" width="1" x="10" y="27" /><rect fill="rgb(0,11,82)" height="1" width="1" x="11" y="27" /><rect fill="rgb(219,130,0)" height="1" width="1" x="12" y="27" /><rect fill="rgb(175,90,0)" height="1" width="1" x="13" y="27" /><rect fill="rgb(0,38,58)" height="1" width="1" x="14" y="27" /><rect fill="rgb(0,36,59)" height="1" width="1" x="17" y="27" /><rect fill="rgb(160,80,0)" height="1" width="1" x="18" y="27" /><rect fill="rgb(218,130,0)" height="1" width="1" x="19" y="27" /><rect fill="rgb(1,37,63)" height="1" width="1" x="20" y="27" /><rect fill="rgb(0,38,60)" height="1" width="1" x="21" y="27" /><rect fill="rgb(0,35,61)" height="1" width="1" x="10" y="28" /><rect fill="rgb(255,203,2)" height="1" width="1" x="11" y="28" /><rect fill="rgb(255,244,58)" height="1" width="1" x="12" y="28" /><rect fill="rgb(252,201,2)" height="1" width="1" x="13" y="28" /><rect fill="rgb(245,131,0)" height="1" width="1" x="14" y="28" /><rect fill="rgb(247,137,0)" height="1" width="1" x="17" y="28" /><rect fill="rgb(255,197,0)" height="1" width="1" x="18" y="28" /><rect fill="rgb(255,244,74)" height="1" width="1" x="19" y="28" /><rect fill="rgb(255,193,0)" height="1" width="1" x="20" y="28" /><rect fill="rgb(0,37,57)" height="1" width="1" x="21" y="28" /></svg>